<?xml version="1.0" encoding="utf-8"?>
<!-- Generator: Adobe Illustrator 17.0.0, SVG Export Plug-In . SVG Version: 6.00 Build 0)  -->
<!DOCTYPE svg PUBLIC "-//W3C//DTD SVG 1.1//EN" "http://www.w3.org/Graphics/SVG/1.1/DTD/svg11.dtd">
<svg version="1.1" id="Слой_1" xmlns="http://www.w3.org/2000/svg" xmlns:xlink="http://www.w3.org/1999/xlink" x="0px" y="0px"
	 width="250px" height="250px" viewBox="0 0 250 250" enable-background="new 0 0 250 250" xml:space="preserve">
<g>
	<path fill="#ACAFC1" d="M160.216,185.426c0,19.15-0.048,38.299,0.048,57.496c0,2.091-0.475,2.661-2.613,2.613
		c-16.298-0.095-32.597-0.095-48.943,0c-2.233,0-2.756-0.618-2.756-2.804c0.048-38.061,0.048-76.17,0.095-114.232
		c0-2.091-0.38-2.851-2.661-2.804c-7.223,0.143-14.398,0-21.62,0.095c-1.663,0-2.138-0.475-2.138-2.138
		c0.048-12.022,0.095-24.091,0-36.113c0-1.853,0.665-2.233,2.328-2.186c7.223,0.095,14.398-0.048,21.62,0.095
		c2.043,0.048,2.471-0.618,2.471-2.566c-0.095-10.596-0.095-21.24,0-31.837c0.095-9.171,1.948-17.867,7.365-25.564
		c5.75-8.173,13.733-13.115,23.093-16.108c6.985-2.233,14.208-3.184,21.478-3.231c13.78-0.19,27.56-0.048,41.34-0.143
		c1.948,0,2.376,0.618,2.376,2.471c-0.048,12.355-0.095,24.709,0,37.064c0,2.043-0.618,2.471-2.566,2.471
		c-8.696-0.095-17.439-0.048-26.135-0.048c-7.65,0-12.64,5.037-12.64,12.592c0,7.508,0.048,15.063-0.048,22.571
		c0,1.806,0.523,2.281,2.281,2.281c12.212-0.048,24.376,0,36.588-0.095c1.853,0,2.518,0.428,2.281,2.376
		c-1.378,12.355-2.471,24.709-4.657,36.969c-0.285,1.521-1.235,1.14-2.091,1.14c-7.223,0-14.398,0-21.62,0
		c-3.469,0-6.985,0.095-10.454-0.048c-1.948-0.095-2.518,0.475-2.471,2.471C160.216,147.269,160.216,166.324,160.216,185.426z"/>
</g>
</svg>
