<?xml version="1.0" encoding="utf-8"?>
<!-- Generator: Adobe Illustrator 17.0.0, SVG Export Plug-In . SVG Version: 6.00 Build 0)  -->
<!DOCTYPE svg PUBLIC "-//W3C//DTD SVG 1.1//EN" "http://www.w3.org/Graphics/SVG/1.1/DTD/svg11.dtd">
<svg version="1.1" id="Слой_1" xmlns="http://www.w3.org/2000/svg" xmlns:xlink="http://www.w3.org/1999/xlink" x="0px" y="0px"
	 width="250px" height="250px" viewBox="0 0 250 250" enable-background="new 0 0 250 250" xml:space="preserve">
<path fill="#50B09F" d="M250,125c0,69.036-55.964,125-125,125S0,194.036,0,125S55.964,0,125,0S250,55.964,250,125z M56.5,72
	c-0.103,3.023-8.5,120,122,123.5c11-5.5,16-17.5,16-17.5s7-12.5-12.5-24s-27-5.5-27-5.5c-7,1-12.5,10.5-12.5,10.5S100,149.5,93,110
	c9.5-7.5,8.5-11.5,8.5-11.5S106,47.5,73,58C73,58,61.5,62,56.5,72z"/>
</svg>
