<?xml version="1.0" encoding="utf-8"?>
<!-- Generator: Adobe Illustrator 17.0.0, SVG Export Plug-In . SVG Version: 6.00 Build 0)  -->
<!DOCTYPE svg PUBLIC "-//W3C//DTD SVG 1.1//EN" "http://www.w3.org/Graphics/SVG/1.1/DTD/svg11.dtd">
<svg version="1.1" id="Layer_1" xmlns="http://www.w3.org/2000/svg" xmlns:xlink="http://www.w3.org/1999/xlink" x="0px" y="0px"
	 width="250px" height="250px" viewBox="0 0 250 250" enable-background="new 0 0 250 250" xml:space="preserve">
<g>
	<path fill="#ADB1C4" d="M110.815,117.529c7.935,0,13.672,5.884,13.672,13.818c0,0.537-0.073,1.514-0.146,2.051
		c-0.073,0.757-0.684,1.294-1.367,1.294h-21.729c0.293,5.054,4.761,9.814,10.107,9.814c3.174,0,5.737-1.196,7.471-2.271
		c1.05-0.61,1.514-0.977,2.124-0.146c0.464,0.61,0.83,1.123,1.294,1.733c0.537,0.684,0.83,1.123-0.293,1.953
		c-1.807,1.44-5.884,3.467-11.084,3.467c-9.131,0-14.795-7.178-14.795-15.845C96.021,124.854,101.685,117.529,110.815,117.529z
		 M119.263,130.444c-0.22-4.37-3.857-8.301-8.447-8.301c-5.054,0-8.984,3.613-9.521,8.301H119.263z"/>
	<path fill="#ADB1C4" d="M132.788,97.07c0-0.757,0.684-1.44,1.44-1.44h2.344c0.757,0,1.44,0.684,1.44,1.44v22.412
		c0,0,3.101-1.953,8.081-1.953c9.058,0,14.502,6.934,14.502,15.771c0,8.691-6.03,15.918-13.745,15.918
		c-5.664,0-9.277-4.004-9.277-4.004l-0.464,2.026c-0.146,0.684-0.61,1.196-1.294,1.196h-1.587c-0.757,0-1.44-0.684-1.44-1.44V97.07z
		 M146.289,144.482c5.518,0,8.984-5.2,8.984-11.084c0-6.03-3.32-10.791-9.888-10.791c-4.15,0-7.324,1.807-7.324,1.807v15.088
		C138.062,139.502,140.869,144.482,146.289,144.482z"/>
	<path fill="#ADB1C4" d="M168.042,100.781c0-2.026,1.587-3.613,3.54-3.613c2.026,0,3.613,1.587,3.613,3.613
		c0,1.953-1.587,3.54-3.613,3.54C169.629,104.321,168.042,102.734,168.042,100.781z M169.092,119.727c0-0.757,0.684-1.44,1.44-1.44
		h2.344c0.757,0,1.44,0.684,1.44,1.44v27.319c0,0.757-0.684,1.44-1.44,1.44h-2.344c-0.757,0-1.44-0.684-1.44-1.44V119.727z"/>
	<path fill="#ADB1C4" d="M185.01,119.727c0-0.757,0.684-1.44,1.44-1.44h1.44c0.684,0,1.05,0.293,1.196,0.903l0.684,2.344
		c0,0,3.54-4.004,9.814-4.004c4.443,0,7.69,1.733,9.668,4.907c0.366-0.293,5.2-4.907,11.255-4.907
		c8.765,0,11.694,5.737,11.694,13.574v15.918c0,0.757-0.684,1.44-1.44,1.44h-2.417c-0.757,0-1.44-0.684-1.44-1.44v-15.918
		c0-5.664-2.417-8.521-6.787-8.521c-4.907,0-8.154,3.247-9.204,4.224c0.22,1.294,0.366,2.71,0.366,4.297v15.918
		c0,0.757-0.684,1.44-1.44,1.44h-2.417c-0.757,0-1.44-0.684-1.44-1.44v-15.918c0-5.737-2.563-8.521-7.178-8.521
		c-5.347,0-8.594,4.297-8.594,4.297v20.142c0,0.757-0.684,1.44-1.44,1.44h-2.344c-0.757,0-1.44-0.684-1.44-1.44v-27.295H185.01z"/>
</g>
<linearGradient id="SVGID_1_" gradientUnits="userSpaceOnUse" x1="745.2765" y1="1139.3942" x2="925.6216" y2="1139.3942" gradientTransform="matrix(0.2441 0 0 0.2441 -171.7338 -161.1847)">
	<stop  offset="0" style="stop-color:#ACB0C3"/>
	<stop  offset="0.2349" style="stop-color:#A8ADC0"/>
	<stop  offset="0.4429" style="stop-color:#9EA2B8"/>
	<stop  offset="0.6406" style="stop-color:#8C90AA"/>
	<stop  offset="0.8309" style="stop-color:#727797"/>
	<stop  offset="1" style="stop-color:#555A80"/>
</linearGradient>
<path fill="url(#SVGID_1_)" d="M44.702,105.615c-0.513,0.952-0.977,2.051-1.489,3.247c-0.439,1.05-0.83,2.124-1.196,3.149
	l-1.001,3.125c-0.61,2.051-1.221,3.857-1.855,5.493c-0.684,1.807-1.44,3.442-2.222,4.883c-0.61,1.099-1.538,2.612-2.661,3.638
	c-1.001,0.879-1.88,1.245-2.905,1.245c-1.001-0.024-2.197-0.562-3.369-1.538c-0.928-0.757-1.904-1.807-3.052-3.296
	c-0.879-1.172-1.782-2.515-2.686-4.004c-1.489-2.563-2.979-5.42-4.443-8.545c-2.734-5.859-4.517-10.913-6.104-15.186l0,0
	c-0.073-0.244-0.244-0.415-0.464-0.513c-0.073-0.024-0.171-0.049-0.269-0.049c-0.22,0-0.415,0.049-0.562,0.195
	c-0.122,0.146-0.244,0.342-0.195,0.586c0.049,0.171,0.073,0.317,0.122,0.488c1.123,4.443,2.71,10.181,4.98,16.455
	c0.952,2.588,2.271,6.03,4.004,9.497c0.879,1.758,1.758,3.32,2.686,4.761c1.147,1.807,2.295,3.223,3.564,4.443
	c0.781,0.757,1.563,1.343,2.368,1.831c1.001,0.586,1.953,0.952,2.881,1.099c1.05,0.171,2.173,0.098,3.198-0.244
	c0.977-0.317,1.929-0.83,2.905-1.587c1.929-1.538,3.247-3.467,4.199-4.98c1.001-1.611,1.904-3.369,2.905-5.737
	c0.757-1.807,1.514-3.784,2.271-6.055l0.977-2.783c0.342-0.928,0.708-1.782,1.05-2.637c1.733-4.517,4.053-4.712,5.908-1.636
	C50.83,104.736,44.702,105.615,44.702,105.615z"/>
<path fill="#ADB1C4" d="M90.674,95.459c-0.879,0-1.587,0.61-1.855,1.44l-0.098,0.439l-0.952,4.712
	c-0.293,1.563-0.659,3.223-1.025,4.858l-0.171,0.83c-0.854,3.882-1.758,7.813-2.734,11.694c-1.025,4.15-2.173,8.081-3.345,11.646
	c-0.684,2.075-1.392,3.906-2.1,5.444c-0.391,0.854-0.781,1.66-1.221,2.368c-0.439,0.708-1.904,3.809-4.126,0.317
	c-0.391-0.61-0.83-1.343-1.318-2.271c-1.758-3.467-3.32-7.69-4.663-11.353l-1.001-2.734c-1.025-2.832-2.075-5.737-3.247-8.643
	c-0.122-0.293-0.244-0.586-0.366-0.879c-0.757-1.831-1.685-3.979-2.832-6.177c-0.635-1.196-1.245-2.173-1.855-3.076
	c-0.659-0.928-1.465-1.978-2.71-2.93c-0.684-0.488-1.343-0.854-2.026-1.05c-0.781-0.244-1.66-0.269-2.441-0.098
	c-0.732,0.171-1.465,0.488-2.173,1.001c-0.659,0.464-1.147,0.977-1.611,1.489c-0.952,1.123-1.611,2.222-2.124,3.174
	c0,0,5.957-0.83,9.521,5.249c0.049,0.073,0.073,0.122,0.122,0.195c0.098,0.195,0.22,0.391,0.317,0.586
	c0.708,1.465,1.538,3.149,2.441,5.396c1.074,2.686,2.1,5.444,3.174,8.374c0.439,1.196,0.879,2.393,1.318,3.589
	c0.684,1.831,1.514,4.004,2.393,6.152c0.684,1.685,1.636,3.931,2.832,6.152c0.464,0.83,1.074,1.953,1.855,3.052
	c0.635,0.903,1.465,1.978,2.637,2.93c0.635,0.488,1.27,0.854,1.929,1.099c0.757,0.293,1.611,0.391,2.368,0.269
	c0.952-0.122,1.733-0.513,2.222-0.83c0.61-0.391,1.196-0.879,1.66-1.392c1.025-1.099,1.685-2.222,2.246-3.198
	c0.537-0.977,1.05-2.026,1.538-3.198c0.781-1.904,1.514-3.906,2.246-6.348c1.318-4.321,2.271-8.545,3.101-12.5
	c0.757-3.54,1.465-7.397,2.271-12.134l0.171-0.977c0.269-1.66,0.537-3.271,0.781-4.956l0.708-5.054l0.098-0.684
	c0-0.024,0-0.024,0-0.049C92.603,96.362,91.748,95.459,90.674,95.459z"/>
</svg>
