<?xml version="1.0" encoding="utf-8"?>
<!-- Generator: Adobe Illustrator 17.0.0, SVG Export Plug-In . SVG Version: 6.00 Build 0)  -->
<!DOCTYPE svg PUBLIC "-//W3C//DTD SVG 1.1//EN" "http://www.w3.org/Graphics/SVG/1.1/DTD/svg11.dtd">
<svg version="1.1" id="Слой_1" xmlns="http://www.w3.org/2000/svg" xmlns:xlink="http://www.w3.org/1999/xlink" x="0px" y="0px"
	 width="250px" height="250px" viewBox="0 0 250 250" enable-background="new 0 0 250 250" xml:space="preserve">
<g>
	<path fill="#ACAFC1" d="M243.577,175.982c-0.293-0.631-0.566-1.155-0.819-1.574c-4.196-7.558-12.215-16.834-24.052-27.832
		l-0.25-0.252l-0.125-0.124l-0.127-0.127h-0.127c-5.372-5.121-8.774-8.564-10.199-10.327c-2.607-3.358-3.191-6.757-1.766-10.202
		c1.007-2.602,4.787-8.098,11.333-16.494c3.443-4.45,6.17-8.016,8.184-10.703c14.525-19.31,20.822-31.649,18.89-37.022l-0.75-1.256
		c-0.504-0.756-1.805-1.448-3.902-2.078c-2.101-0.629-4.787-0.733-8.062-0.314l-36.266,0.251c-0.587-0.208-1.426-0.189-2.519,0.064
		c-1.092,0.252-1.638,0.379-1.638,0.379l-0.631,0.315l-0.501,0.379c-0.42,0.251-0.882,0.691-1.386,1.321
		c-0.501,0.628-0.921,1.364-1.256,2.204c-3.948,10.158-8.437,19.602-13.476,28.333c-3.106,5.206-5.959,9.717-8.564,13.537
		c-2.602,3.819-4.785,6.632-6.546,8.436c-1.764,1.805-3.356,3.251-4.786,4.344c-1.428,1.093-2.518,1.555-3.272,1.386
		c-0.756-0.169-1.469-0.337-2.143-0.504c-1.175-0.756-2.119-1.784-2.832-3.085c-0.715-1.301-1.197-2.939-1.449-4.912
		c-0.251-1.974-0.399-3.672-0.441-5.1c-0.039-1.426-0.021-3.443,0.064-6.045c0.087-2.604,0.127-4.365,0.127-5.289
		c0-3.191,0.062-6.653,0.187-10.389c0.127-3.736,0.23-6.696,0.316-8.876c0.086-2.183,0.125-4.492,0.125-6.927
		c0-2.435-0.148-4.344-0.441-5.73c-0.289-1.384-0.733-2.728-1.319-4.03c-0.589-1.301-1.451-2.308-2.582-3.022
		c-1.133-0.714-2.542-1.28-4.218-1.701c-4.45-1.007-10.116-1.552-17.002-1.636c-15.614-0.168-25.647,0.841-30.096,3.023
		c-1.763,0.922-3.358,2.182-4.785,3.776c-1.512,1.848-1.722,2.856-0.631,3.022c5.038,0.755,8.604,2.56,10.703,5.414l0.756,1.512
		c0.588,1.091,1.176,3.023,1.764,5.793c0.587,2.77,0.966,5.834,1.133,9.19c0.419,6.129,0.419,11.376,0,15.741
		c-0.42,4.366-0.817,7.766-1.196,10.2c-0.379,2.435-0.945,4.408-1.7,5.918c-0.756,1.511-1.26,2.435-1.512,2.77
		c-0.252,0.335-0.462,0.546-0.629,0.629c-1.091,0.418-2.226,0.631-3.401,0.631c-1.176,0-2.603-0.588-4.281-1.764
		c-1.678-1.176-3.42-2.791-5.225-4.848c-1.805-2.058-3.841-4.933-6.109-8.626c-2.266-3.693-4.617-8.059-7.051-13.096l-2.014-3.653
		c-1.259-2.35-2.979-5.772-5.162-10.262c-2.184-4.492-4.115-8.838-5.793-13.035c-0.671-1.763-1.679-3.105-3.022-4.029l-0.63-0.379
		c-0.419-0.335-1.092-0.691-2.014-1.07c-0.924-0.379-1.888-0.651-2.896-0.818l-34.504,0.251c-3.526,0-5.918,0.799-7.178,2.394
		l-0.504,0.755C3.127,61.24,3,61.911,3,62.835c0,0.924,0.252,2.057,0.756,3.399c5.037,11.838,10.514,23.255,16.433,34.252
		c5.918,10.997,11.061,19.856,15.425,26.568c4.365,6.717,8.815,13.056,13.348,19.015c4.534,5.961,7.535,9.781,9.003,11.459
		c1.47,1.681,2.625,2.938,3.464,3.778l3.149,3.022c2.015,2.015,4.973,4.429,8.877,7.24c3.905,2.814,8.228,5.583,12.971,8.314
		c4.744,2.726,10.263,4.951,16.56,6.671c6.296,1.722,12.424,2.413,18.385,2.08h14.482c2.937-0.254,5.162-1.177,6.675-2.771
		l0.501-0.631c0.337-0.501,0.652-1.28,0.943-2.327c0.295-1.049,0.441-2.205,0.441-3.463c-0.086-3.609,0.189-6.862,0.817-9.758
		c0.628-2.895,1.343-5.078,2.143-6.548c0.8-1.469,1.702-2.708,2.706-3.713c1.007-1.007,1.724-1.617,2.144-1.827
		c0.418-0.211,0.752-0.355,1.004-0.441c2.015-0.671,4.386-0.021,7.117,1.953c2.729,1.973,5.288,4.409,7.682,7.304
		c2.393,2.898,5.268,6.149,8.625,9.758c3.36,3.611,6.297,6.294,8.815,8.06l2.518,1.511c1.681,1.008,3.864,1.932,6.551,2.771
		c2.682,0.839,5.032,1.049,7.05,0.629l32.236-0.503c3.188,0,5.669-0.528,7.429-1.575c1.763-1.049,2.811-2.205,3.149-3.463
		c0.337-1.259,0.355-2.687,0.064-4.284C244.164,177.725,243.869,176.612,243.577,175.982z"/>
</g>
</svg>
